<?xml version="1.0" standalone="no"?>
<!DOCTYPE svg PUBLIC "-//W3C//DTD SVG 20010904//EN"
 "http://www.w3.org/TR/2001/REC-SVG-20010904/DTD/svg10.dtd">
<svg version="1.0" xmlns="http://www.w3.org/2000/svg"
 width="1084.000000pt" height="1084.000000pt" viewBox="0 0 1084.000000 1084.000000"
 preserveAspectRatio="xMidYMid meet">
<metadata>
Created by potrace 1.11, written by Peter Selinger 2001-2013
</metadata>
<g transform="translate(0.000000,1084.000000) scale(0.100000,-0.100000)"
fill="#000000" stroke="none">
<path d="M310 10814 c-145 -39 -259 -160 -293 -310 -10 -48 -13 -968 -12
-5109 1 -4880 2 -5052 20 -5105 39 -118 115 -203 231 -257 l59 -28 5092 -3
5092 -2 58 21 c100 38 176 101 226 189 58 102 54 -283 53 5220 l-2 5065 -21
58 c-43 114 -130 203 -243 250 l-55 22 -5075 2 c-4444 2 -5082 0 -5130 -13z"/>
</g>
</svg>
